<?xml version="1.0" encoding="UTF-8"?> <svg xmlns="http://www.w3.org/2000/svg" xmlns:xlink="http://www.w3.org/1999/xlink" version="1.1" id="Ebene_1" x="0px" y="0px" viewBox="0 0 146 64" style="enable-background:new 0 0 146 64;" xml:space="preserve"> <style type="text/css"> .st0{fill:#FFFFFF;} .st1{fill:url(#SVGID_1_);} </style> <polygon class="st0" points="80.9,11.4 80,9 69.5,9 68.2,12.1 65.6,18.8 "></polygon> <polygon class="st0" points="25.9,41.5 34.3,48.2 39.5,35 "></polygon> <polygon class="st0" points="13,41.3 13,35.5 12.2,34.9 12.2,34.9 0,25.3 0,42.3 0,50.3 18.7,41.3 "></polygon> <polygon class="st0" points="58.4,37.1 54.7,27.7 43.8,32.9 50.2,49.2 68.7,43.8 74.7,28.6 79.5,40.7 91.1,37.3 82.1,14.5 63.9,23.3 "></polygon> <polygon class="st0" points="41.3,30.4 42,28.6 42.5,29.8 53.4,24.6 48.5,12.1 47.3,9 36.8,9 35.6,12.1 25.3,38.1 "></polygon> <polygon class="st0" points="51.4,52.3 51.9,53.5 51.9,53.6 52.5,55.1 52.5,55.1 64.3,55.1 67.2,47.7 "></polygon> <polygon class="st0" points="80.7,43.7 85.2,55.1 98.2,55.1 92.3,40.4 "></polygon> <polygon class="st0" points="22.5,43.1 0,53.9 0,55.1 18.6,55.1 29.6,55.1 31.6,55.1 33,51.4 "></polygon> <polygon class="st0" points="13,31.3 13,9 0,9 0,21.1 "></polygon> <linearGradient id="SVGID_1_" gradientUnits="userSpaceOnUse" x1="91.5698" y1="66.9954" x2="111.0516" y2="18.7809" gradientTransform="matrix(1 0 0 -1 0 74.9449)"> <stop offset="0" style="stop-color:#36A9E1"></stop> <stop offset="1" style="stop-color:#007CFF"></stop> </linearGradient> <polygon class="st1" points="95.4,9 113.7,55.1 107.2,55.1 89,9 "></polygon> <path class="st0" d="M127.2,55.1h-4.5v-20h4.5V55.1z"></path> <path class="st0" d="M145.7,38.8H140v16.3h-4.5V38.8h-5.7v-3.7h15.9V38.8z"></path> </svg> 